<svg xmlns="http://www.w3.org/2000/svg"><style>:root svg:not(:target){display:none}</style><svg fill="none" id="back" viewBox="0 0 20 20"><path opacity=".3" fill-rule="evenodd" clip-rule="evenodd" d="M.283 10.684a.968.968 0 0 1 0-1.368L9.316.283a.968.968 0 0 1 1.368 1.369l-7.38 7.38h15.728a.968.968 0 0 1 0 1.936H3.304l7.38 7.38a.968.968 0 0 1-1.368 1.369L.283 10.684Z" fill="#333"></path></svg><svg fill="none" id="checkbox" viewBox="0 0 20 20"><rect x=".5" y=".5" width="19" height="19" rx="2.5" fill="#7397F5"></rect><path d="M13.712 6.213a.938.938 0 0 1 1.338 1.312l-4.988 6.238a.937.937 0 0 1-1.35.025L5.405 10.48A.937.937 0 1 1 6.73 9.155l2.617 2.616 4.342-5.53a.319.319 0 0 1 .025-.028h-.002Z" fill="#fff"></path><rect x=".5" y=".5" width="19" height="19" rx="2.5" stroke="#7397F5"></rect></svg><svg fill="none" id="clear" viewBox="0 0 20 20"><path fill-rule="evenodd" clip-rule="evenodd" d="M18.333 10a8.333 8.333 0 1 1-16.666 0 8.333 8.333 0 0 1 16.666 0ZM13.09 8.09a.833.833 0 1 0-1.178-1.18L10 8.823 8.088 6.91a.833.833 0 1 0-1.178 1.178L8.82 10l-1.91 1.91a.833.833 0 1 0 1.178 1.18L10 11.177l1.91 1.911a.833.833 0 0 0 1.18-1.178L11.178 10l1.91-1.91Z" fill="#333" opacity=".3"></path></svg><svg fill="none" id="find-small" viewBox="0 0 16 16"><g opacity=".3" fill-rule="evenodd" clip-rule="evenodd" fill="#333"><path d="M7.333 2.75a4.583 4.583 0 1 0 0 9.167 4.583 4.583 0 0 0 0-9.167ZM1.25 7.333a6.083 6.083 0 1 1 12.167 0 6.083 6.083 0 0 1-12.167 0Z"></path><path d="M10.57 10.57a.75.75 0 0 1 1.06 0l2.9 2.9a.75.75 0 0 1-1.06 1.06l-2.9-2.9a.75.75 0 0 1 0-1.06Z"></path></g></svg><svg fill="none" id="find" viewBox="0 0 24 24"><path d="M15.5 14h-.79l-.28-.27A6.471 6.471 0 0 0 16 9.5 6.5 6.5 0 1 0 9.5 16c1.61 0 3.09-.59 4.23-1.57l.27.28v.79l5 4.99L20.49 19l-4.99-5Zm-6 0C7.01 14 5 11.99 5 9.5S7.01 5 9.5 5 14 7.01 14 9.5 11.99 14 9.5 14Z" fill="#5A5A5A"></path></svg><svg fill="none" id="fire" viewBox="0 0 20 20"><path d="M3.333 11.667c0-1.459.348-2.757 1.042-3.896.694-1.14 1.458-2.097 2.292-2.875.833-.778 1.597-1.372 2.291-1.782L10 2.5v2.75c0 .514.174.92.52 1.218.348.299.737.448 1.168.449.236 0 .461-.049.677-.146a1.64 1.64 0 0 0 .593-.48l.375-.458A6.694 6.694 0 0 1 15.75 8.26a6.575 6.575 0 0 1 .917 3.407c0 1.222-.299 2.337-.896 3.344a6.722 6.722 0 0 1-2.354 2.384c.236-.333.42-.698.552-1.094.132-.396.198-.816.198-1.26 0-.555-.104-1.08-.313-1.573a4.12 4.12 0 0 0-.896-1.322L10 9.25l-2.938 2.896a4.245 4.245 0 0 0-.916 1.333 3.924 3.924 0 0 0-.313 1.563c0 .444.066.864.199 1.26.132.397.316.761.551 1.094A6.737 6.737 0 0 1 4.23 15.01c-.597-1.007-.896-2.122-.896-3.343ZM10 11.583l1.77 1.73c.237.236.418.5.543.791.124.292.187.604.187.938 0 .68-.243 1.26-.73 1.739A2.433 2.433 0 0 1 10 17.5c-.694 0-1.285-.24-1.77-.72a2.353 2.353 0 0 1-.73-1.738c0-.32.062-.629.187-.928.125-.299.306-.566.542-.802L10 11.584Z" fill="#FF8743"></path></svg><svg fill="none" id="logo" viewBox="0 0 24 24"><path d="M5 21c-.55 0-1.021-.196-1.413-.587A1.928 1.928 0 0 1 3 19V5c0-.55.196-1.021.587-1.413A1.928 1.928 0 0 1 5 3h14c.55 0 1.021.196 1.413.587.391.392.587.863.587 1.413v14c0 .55-.196 1.021-.587 1.413A1.928 1.928 0 0 1 19 21H5Zm1-4h12l-3.75-5-3 4L9 13l-3 4Z" fill="#73AFF4"></path></svg><svg fill="none" id="placeholder" viewBox="0 0 60 60"><g opacity=".5" clip-path="url(#placeholder_0)"><path fill-rule="evenodd" clip-rule="evenodd" d="M58.23 11.149a2.813 2.813 0 0 1 1.77 2.61V46.24a2.812 2.812 0 0 1-1.77 2.61L31.043 59.726a2.812 2.812 0 0 1-2.09 0L1.767 48.851A2.812 2.812 0 0 1 0 46.241V13.76a2.813 2.813 0 0 1 1.766-2.61L27.911.69l.038-.011 1.005-.405c.671-.27 1.42-.27 2.092 0l1.009.405.038.011L58.23 11.149ZM39.015 7.5l-23.078 9.229-9.014-3.604-3.173 1.271v1.5l24.375 9.75v29.708l1.875.75 1.875-.75V25.65L56.25 15.9v-1.5l-3.172-1.271L30 22.354l-9.015-3.604 23.078-9.229L39.014 7.5Z" fill="#A6A9C7"></path></g><defs><clipPath id="placeholder_0"><path fill="#fff" d="M0 0h60v60H0z"></path></clipPath></defs></svg></svg>